<svg id="check-circle-fill" xmlns="http://www.w3.org/2000/svg" xmlns:xlink="http://www.w3.org/1999/xlink" width="40.83" height="40.83" viewBox="0 0 40.83 40.83">
  <defs>
    <linearGradient id="linear-gradient" x1="0.221" y1="0.104" x2="0.867" y2="0.834" gradientUnits="objectBoundingBox">
      <stop offset="0" stop-color="#57ddff"/>
      <stop offset="1" stop-color="#c058f3"/>
    </linearGradient>
  </defs>
  <path id="Path_1" data-name="Path 1" d="M40.83,20.415A20.415,20.415,0,1,1,20.415,0,20.415,20.415,0,0,1,40.83,20.415ZM30.7,12.683a1.914,1.914,0,0,0-2.756.056L19.08,24.031l-5.341-5.343a1.914,1.914,0,0,0-2.7,2.7l6.752,6.754A1.914,1.914,0,0,0,20.54,28.1L30.727,15.361a1.914,1.914,0,0,0-.025-2.68Z" fill-rule="evenodd" fill="url(#linear-gradient)"/>
</svg>
